HIERARCHY
ROOT Hips
{
    OFFSET 0.000000 0.000000 0.000000
    CHANNELS 6 Xposition Yposition Zposition Zrotation Xrotation Yrotation
    JOINT Spine
    {
        OFFSET -0.000000 14.517291 0.000000
        CHANNELS 3 Zrotation Xrotation Yrotation
        JOINT Spine1
        {
            OFFSET -0.000000 37.558300 0.000000
            CHANNELS 3 Zrotation Xrotation Yrotation
            JOINT Neck
            {
                OFFSET -0.000000 37.404057 3.400369
                CHANNELS 3 Zrotation Xrotation Yrotation
                JOINT Head
                {
                    OFFSET -0.000000 24.785618 -3.540803
                    CHANNELS 3 Zrotation Xrotation Yrotation
                    End Site
                    {
                        OFFSET -0.000000 35.408028 0.000000
                    }
                }
            }
            JOINT LeftShoulder
            {
                OFFSET 6.992933 33.973492 -0.192664
                CHANNELS 3 Zrotation Xrotation Yrotation
                JOINT LeftArm
                {
                    OFFSET 21.527611 0.000000 0.000000
                    CHANNELS 3 Zrotation Xrotation Yrotation
                    JOINT LeftForeArm
                    {
                        OFFSET 56.353916 0.000000 0.000000
                        CHANNELS 3 Zrotation Xrotation Yrotation
                        JOINT LeftHand
                        {
                            OFFSET 47.774071 0.000000 0.000000
                            CHANNELS 3 Zrotation Xrotation Yrotation
                            End Site
                            {
                                OFFSET 26.556021 0.000000 0.000000
                            }
                        }
                    }
                }
            }
            JOINT RightShoulder
            {
                OFFSET -7.065357 33.973492 -0.192664
                CHANNELS 3 Zrotation Xrotation Yrotation
                JOINT RightArm
                {
                    OFFSET -21.527611 0.000000 0.000000
                    CHANNELS 3 Zrotation Xrotation Yrotation
                    JOINT RightForeArm
                    {
                        OFFSET -56.353916 0.000000 0.000000
                        CHANNELS 3 Zrotation Xrotation Yrotation
                        JOINT RightHand
                        {
                            OFFSET -47.774071 0.000000 0.000000
                            CHANNELS 3 Zrotation Xrotation Yrotation
                            End Site
                            {
                                OFFSET -26.556021 0.000000 0.000000
                            }
                        }
                    }
                }
            }
        }
    }
    JOINT LeftUpLeg
    {
        OFFSET 17.704014 0.000000 0.000000
        CHANNELS 3 Zrotation Xrotation Yrotation
        JOINT LeftLeg
        {
            OFFSET -0.000000 -81.181816 0.000000
            CHANNELS 3 Zrotation Xrotation Yrotation
            JOINT LeftFoot
            {
                OFFSET -0.000000 -62.821102 0.000000
                CHANNELS 3 Zrotation Xrotation Yrotation
                JOINT LeftToeBase
                {
                    OFFSET -0.000000 -11.507608 26.556021
                    CHANNELS 3 Zrotation Xrotation Yrotation
                    End Site
                    {
                        OFFSET -0.000000 0.000000 7.081605
                    }
                }
            }
        }
    }
    JOINT RightUpLeg
    {
        OFFSET -17.704014 0.000000 0.000000
        CHANNELS 3 Zrotation Xrotation Yrotation
        JOINT RightLeg
        {
            OFFSET -0.000000 -81.181816 0.000000
            CHANNELS 3 Zrotation Xrotation Yrotation
            JOINT RightFoot
            {
                OFFSET -0.000000 -62.821102 0.000000
                CHANNELS 3 Zrotation Xrotation Yrotation
                JOINT RightToeBase
                {
                    OFFSET -0.000000 -11.507608 26.556021
                    CHANNELS 3 Zrotation Xrotation Yrotation
                    End Site
                    {
                        OFFSET -0.000000 0.000000 7.081605
                    }
                }
            }
        }
    }
}
MOTION
Frames:    13
Frame Time:    0.008333
9.270435    157.200104    -96.501091    -7.974472    -8.445887    29.691900    -2.242771    1.770028    -1.710876    -14.950566    -1.029317    -0.711984    13.204618    -12.458060    -2.318865    9.189217    8.676980    -5.223234    10.296539    2.495583    -28.200123    -24.353592    19.576714    -75.508423    -15.458636    -9.233446    -77.567024    17.076740    -21.756300    -3.177266    -17.599648    -13.732949    -2.816055    25.482954    -25.867529    74.064941    -7.659205    -15.146574    21.595087    -2.334518    -14.314414    28.933882    24.054296    2.459773    4.168897    -11.211755    33.643906    -16.513748    3.426701    -29.939402    41.598595    0.000000    0.000000    0.000000    -4.527677    -18.441677    -5.104743    6.941953    16.801611    -10.189842    2.393472    16.778355    -16.220480    0.000000    0.000000    0.000000    
9.523966    157.179596    -96.534607    -7.794179    -8.363072    29.723650    -2.142839    1.696735    -1.734018    -14.782151    -1.042028    -0.719074    13.336811    -12.394708    -2.283548    9.058950    8.687011    -5.223179    10.353267    2.484885    -28.232296    -24.337688    19.672026    -75.489601    -15.383838    -9.403916    -77.590492    16.817274    -21.870232    -3.271571    -17.521030    -13.659541    -2.818364    25.411060    -25.955919    74.006462    -7.632438    -15.106101    21.601742    -2.356664    -14.285148    28.993938    23.750660    2.569104    4.098525    -11.211192    33.513840    -16.502787    3.524165    -29.921949    41.636227    0.000000    0.000000    0.000000    -4.859237    -18.336481    -4.960422    7.109693    16.708328    -10.202429    2.390771    16.655598    -16.382105    0.000000    0.000000    0.000000    
9.777431    157.156891    -96.553734    -7.626471    -8.296774    29.752279    -2.020825    1.618825    -1.781666    -14.599648    -1.063545    -0.735258    12.938791    -12.303188    -2.397250    9.616323    8.737226    -5.194061    10.354947    2.530905    -28.243664    -24.300135    19.694307    -75.466072    -15.401291    -9.467270    -77.580704    16.914846    -21.930044    -3.172945    -17.497587    -13.563907    -2.759210    25.489540    -26.085926    74.002419    -7.554292    -15.111542    21.631075    -2.435814    -14.322779    28.983170    23.468573    2.684760    3.984534    -11.227584    33.398312    -16.486839    3.613152    -29.927834    41.699833    0.000000    0.000000    0.000000    -5.113794    -18.247335    -4.939713    7.114844    16.678270    -10.167155    2.422617    16.524874    -16.423416    0.000000    0.000000    0.000000    
10.035506    157.139023    -96.567329    -7.449750    -8.253314    29.764111    -1.906013    1.560315    -1.808560    -14.444609    -1.047958    -0.740064    13.129685    -12.309873    -2.345418    9.450665    8.834760    -5.209735    10.449867    2.562180    -28.236923    -24.290701    19.751595    -75.502937    -15.348541    -9.623112    -77.565659    16.839825    -22.024111    -3.122972    -17.419607    -13.595654    -2.719687    25.496084    -26.157871    73.885025    -7.409427    -15.094398    21.757357    -2.484441    -14.335887    28.957478    23.182623    2.837561    3.860849    -11.242814    33.266449    -16.454500    3.715453    -29.919626    41.780960    0.000000    0.000000    0.000000    -5.317633    -18.134380    -5.050688    6.988501    16.656038    -10.084592    2.446466    16.416395    -16.335615    0.000000    0.000000    0.000000    
10.286090    157.122955    -96.577179    -7.274962    -8.202115    29.787916    -1.819105    1.487807    -1.846445    -14.242577    -1.020190    -0.746744    13.276017    -12.293730    -2.278998    9.306792    8.883451    -5.190241    10.500488    2.572811    -28.231390    -24.337826    19.740873    -75.508484    -15.497055    -9.638988    -77.504417    16.822721    -22.161207    -3.280399    -17.350077    -13.556595    -2.722010    25.512150    -26.232407    73.880516    -7.345209    -15.148666    21.829445    -2.409223    -14.379519    28.986748    22.900789    2.976079    3.696372    -11.287014    33.128086    -16.401642    3.820986    -29.905518    41.881729    0.000000    0.000000    0.000000    -5.564785    -18.014328    -5.015189    7.000369    16.600365    -10.069694    2.456709    16.290201    -16.372936    0.000000    0.000000    0.000000    
10.526993    157.105927    -96.588402    -7.118850    -8.149232    29.810919    -1.700340    1.424504    -1.909703    -14.064846    -1.031332    -0.766968    13.382499    -12.267962    -2.217447    9.226258    8.981306    -5.164020    10.558436    2.583263    -28.201269    -24.347137    19.807745    -75.511238    -15.443869    -9.695528    -77.495781    16.962685    -22.160276    -3.168309    -17.312399    -13.610569    -2.698786    25.507851    -26.188950    73.792793    -7.297936    -15.172990    21.927824    -2.366733    -14.396368    29.011290    22.633936    3.098091    3.535552    -11.323395    32.996254    -16.327824    3.925487    -29.893593    41.958965    0.000000    0.000000    0.000000    -5.682574    -17.936268    -5.315940    6.662826    16.606615    -10.193637    2.424467    16.236166    -15.856054    0.000000    0.000000    0.000000    
10.770700    157.091873    -96.600822    -6.964731    -8.092457    29.839939    -1.646421    1.312991    -1.897221    -13.812039    -0.911403    -0.745354    13.563499    -12.383430    -2.175340    9.033993    9.141987    -5.206325    10.691433    2.547493    -28.234455    -24.340099    19.805208    -75.651207    -15.421445    -9.818146    -77.422562    16.957682    -22.237228    -3.127621    -17.286943    -13.601909    -2.834075    25.500200    -26.259861    73.781242    -7.245358    -15.125276    21.993303    -2.399767    -14.365409    29.145527    22.360867    3.210890    3.386031    -11.338881    32.873020    -16.266378    4.019445    -29.880991    42.027508    0.000000    0.000000    0.000000    -5.923048    -17.841084    -5.282221    6.687148    16.584127    -9.969769    2.485375    16.086449    -16.109760    0.000000    0.000000    0.000000    
11.025460    157.083771    -96.610107    -6.800388    -8.044390    29.844732    -1.579506    1.243821    -1.916163    -13.555772    -0.899662    -0.747807    13.623288    -12.344365    -2.140616    8.977744    9.211430    -5.190160    10.714790    2.578665    -28.238113    -24.349966    19.813974    -75.679909    -15.434692    -9.835428    -77.368759    16.974020    -22.246492    -3.080658    -17.239313    -13.521213    -2.824687    25.559084    -26.404007    73.801552    -7.114854    -15.085266    22.085211    -2.276331    -14.313336    29.156990    22.069334    3.349674    3.261137    -11.315775    32.770485    -16.551128    4.265647    -29.859571    42.460373    0.000000    0.000000    0.000000    -6.209843    -17.672501    -5.150801    6.848840    16.418461    -9.965162    2.474511    15.992765    -16.249098    0.000000    0.000000    0.000000    
11.335367    157.081787    -96.609589    -6.601476    -8.019975    29.845587    -0.868623    1.200793    -2.475145    -14.049305    -0.873681    -0.932826    13.033434    -12.600816    -1.965110    9.751498    9.710426    -4.876857    10.586338    2.400675    -27.068062    -23.938892    20.239365    -75.842285    -15.348469    -9.882384    -77.838829    17.701088    -22.274466    -2.619263    -17.541649    -13.644980    -2.428976    26.330948    -26.488743    74.211082    -7.175572    -14.931636    22.062477    -2.382476    -14.175381    29.135582    21.725697    3.573449    3.133895    -11.262927    32.575680    -16.495554    4.340712    -29.830084    42.513912    0.000000    0.000000    0.000000    -6.490406    -17.457594    -5.096832    6.901555    16.250088    -10.235600    2.398233    15.936247    -15.986075    0.000000    0.000000    0.000000    
11.494628    157.072311    -96.626945    -6.516087    -7.907357    29.852858    -0.864129    1.110710    -2.492983    -13.728444    -0.941210    -0.944175    13.429598    -12.613266    -1.844769    9.254296    9.838042    -4.896631    10.622854    2.434809    -27.095177    -23.903046    20.275377    -75.879631    -15.336261    -9.922910    -77.818954    17.075720    -22.315996    -2.839383    -17.422798    -13.553518    -2.460487    26.499493    -26.705421    74.405418    -6.943843    -14.731841    22.022839    -2.431306    -14.037023    29.290203    21.520723    3.595020    3.089256    -11.268916    32.463078    -16.451853    4.370461    -29.817291    42.538254    0.000000    0.000000    0.000000    -6.540534    -17.486824    -5.400070    6.531317    16.269625    -10.150016    2.438978    15.882834    -15.681422    0.000000    0.000000    0.000000    
11.793160    157.072708    -96.634689    -6.330616    -7.870686    29.858250    -0.752367    1.066234    -2.494786    -13.571871    -0.969786    -0.946557    13.194124    -12.498940    -1.952958    9.673659    9.914013    -4.916708    10.647449    2.495205    -27.150291    -23.862139    20.302637    -75.895821    -15.301730    -9.954002    -77.793755    17.120659    -22.305359    -2.774974    -17.369631    -13.540015    -2.436402    26.530432    -26.733742    74.315582    -6.858316    -14.642306    22.170763    -2.374420    -13.940870    29.329760    21.191055    3.801753    2.995518    -11.211404    32.256977    -16.405912    4.441629    -29.777857    42.566750    0.000000    0.000000    0.000000    -6.875842    -17.274269    -5.272671    6.740005    16.076777    -10.165915    2.408391    15.805150    -15.792563    0.000000    0.000000    0.000000    
12.019420    157.073593    -96.640617    -6.203611    -7.792674    29.858185    -0.690723    0.982499    -2.513267    -13.341736    -1.012355    -0.955550    13.328650    -12.477538    -1.918425    9.577134    10.090521    -4.933958    10.686845    2.546867    -27.177286    -23.849648    20.295177    -75.924393    -15.321712    -9.953730    -77.761406    17.085455    -22.315014    -2.789954    -17.267656    -13.506159    -2.437637    26.524778    -26.754580    74.303719    -6.815224    -14.503254    22.251299    -2.493079    -13.837250    29.431025    20.938147    3.922088    2.954142    -11.192068    32.082897    -16.374348    4.474928    -29.750422    42.588490    0.000000    0.000000    0.000000    -7.090290    -17.189402    -5.265316    6.756499    15.982981    -10.183971    2.423768    15.732105    -15.776723    0.000000    0.000000    0.000000    
12.248668    157.079651    -96.645866    -6.069124    -7.710557    29.844940    -0.626522    0.893598    -2.529988    -13.121408    -1.057567    -0.964109    13.617550    -12.395593    -1.854661    9.184802    10.204522    -4.964335    10.716128    2.562882    -27.211159    -23.859003    20.317009    -75.914398    -15.281811    -9.926446    -77.717621    17.588884    -22.263006    -2.802115    -17.169653    -13.556509    -2.320999    26.424652    -26.740358    74.138863    -6.784099    -14.442004    22.358530    -2.417946    -13.757356    29.483738    20.670527    4.058562    2.977376    -11.127253    31.896614    -16.422073    4.542590    -29.682676    42.624054    0.000000    0.000000    0.000000    -7.312335    -17.106901    -5.221474    6.779227    15.883478    -10.230576    2.424714    15.685871    -15.746301    0.000000    0.000000    0.000000    
